<svg width="26" height="26" viewBox="0 0 26 26" fill="none" xmlns="http://www.w3.org/2000/svg">
<g clip-path="url(#clip0_3842_35541)">
<path fill-rule="evenodd" clip-rule="evenodd" d="M17.875 24.375C19.5989 24.375 21.2522 23.6902 22.4712 22.4712C23.6902 21.2522 24.375 19.5989 24.375 17.875C24.375 16.1511 23.6902 14.4978 22.4712 13.2788C21.2522 12.0598 19.5989 11.375 17.875 11.375C16.1511 11.375 14.4978 12.0598 13.2788 13.2788C12.0598 14.4978 11.375 16.1511 11.375 17.875C11.375 19.5989 12.0598 21.2522 13.2788 22.4712C14.4978 23.6902 16.1511 24.375 17.875 24.375ZM26 17.875C26 20.0299 25.144 22.0965 23.6202 23.6202C22.0965 25.144 20.0299 26 17.875 26C15.7201 26 13.6535 25.144 12.1298 23.6202C10.606 22.0965 9.75 20.0299 9.75 17.875C9.75 15.7201 10.606 13.6535 12.1298 12.1298C13.6535 10.606 15.7201 9.75 17.875 9.75C20.0299 9.75 22.0965 10.606 23.6202 12.1298C25.144 13.6535 26 15.7201 26 17.875Z" fill="#D94F36"/>
<path d="M15.1676 19.68C15.244 20.6485 16.0094 21.4025 17.3825 21.4935V22.2085H17.9919V21.4886C19.4138 21.3895 20.2441 20.629 20.2441 19.5272C20.2441 18.523 19.6104 18.0062 18.4729 17.7397L17.9919 17.626V15.676C18.6029 15.7459 18.9896 16.079 19.0823 16.5405H20.1515C20.0751 15.6061 19.274 14.8765 17.9919 14.7969V14.0835H17.3825V14.8147C16.1686 14.9334 15.3431 15.663 15.3431 16.6965C15.3431 17.6097 15.9574 18.1915 16.9795 18.4287L17.3825 18.5279V20.5949C16.7585 20.5006 16.3441 20.1561 16.2515 19.68H15.166H15.1676ZM17.3776 17.4797C16.778 17.3416 16.453 17.0572 16.453 16.6315C16.453 16.1537 16.804 15.7962 17.3825 15.6922V17.4797H17.3776ZM18.0796 18.692C18.8093 18.861 19.144 19.134 19.144 19.6166C19.144 20.1675 18.7264 20.5445 17.9919 20.6144V18.6725L18.0796 18.692Z" fill="#D94F36"/>
<path d="M1.625 0C1.19402 0 0.780698 0.171205 0.475951 0.475951C0.171205 0.780698 0 1.19402 0 1.625L0 14.625C0 15.056 0.171205 15.4693 0.475951 15.774C0.780698 16.0788 1.19402 16.25 1.625 16.25H8.25988C8.35413 15.691 8.4955 15.1482 8.67912 14.625H4.875C4.875 13.763 4.53259 12.9364 3.9231 12.3269C3.3136 11.7174 2.48695 11.375 1.625 11.375V4.875C2.48695 4.875 3.3136 4.53259 3.9231 3.9231C4.53259 3.3136 4.875 2.48695 4.875 1.625H21.125C21.125 2.48695 21.4674 3.3136 22.0769 3.9231C22.6864 4.53259 23.513 4.875 24.375 4.875V10.608C24.9925 11.1605 25.5401 11.791 26 12.4833V1.625C26 1.19402 25.8288 0.780698 25.524 0.475951C25.2193 0.171205 24.806 0 24.375 0L1.625 0Z" fill="#D94F36"/>
<path d="M16.2468 8.79945L16.25 8.66457C16.2497 8.10491 16.1048 7.55481 15.8295 7.06757C15.5541 6.58032 15.1576 6.17243 14.6784 5.88341C14.1991 5.59439 13.6533 5.43403 13.0939 5.41786C12.5345 5.40169 11.9803 5.53026 11.4852 5.79112C10.99 6.05197 10.5706 6.43628 10.2676 6.90681C9.96458 7.37734 9.7882 7.91815 9.75554 8.47686C9.72288 9.03557 9.83505 9.59324 10.0812 10.0959C10.3273 10.5985 10.6991 11.0291 11.1605 11.3458C12.5641 10.0089 14.3354 9.12212 16.2468 8.79945Z" fill="#D94F36"/>
</g>
<defs>
<clipPath id="clip0_3842_35541">
<rect width="26" height="26" fill="white"/>
</clipPath>
</defs>
</svg>
