<svg width="29" height="29" viewBox="0 0 29 29" fill="none" xmlns="http://www.w3.org/2000/svg">
<path d="M14.8816 3.71014C14.7618 3.65438 14.6313 3.62549 14.4991 3.62549C14.367 3.62549 14.2365 3.65438 14.1167 3.71014L0.522947 10.0539C0.362871 10.1286 0.228123 10.2485 0.135273 10.3988C0.042424 10.549 -0.0044776 10.7232 0.000336713 10.8998C0.00515103 11.0764 0.0614713 11.2477 0.162371 11.3927C0.263271 11.5377 0.404351 11.6501 0.56826 11.7159L14.162 17.1534C14.3784 17.2402 14.6199 17.2402 14.8363 17.1534L25.3741 12.9412V23.5625C24.8934 23.5625 24.4324 23.7534 24.0925 24.0933C23.7526 24.4332 23.5616 24.8942 23.5616 25.375V29H28.9991V25.375C28.9991 24.8942 28.8082 24.4332 28.4683 24.0933C28.1284 23.7534 27.6673 23.5625 27.1866 23.5625V12.2144L28.43 11.7159C28.5939 11.6501 28.735 11.5377 28.8359 11.3927C28.9368 11.2477 28.9931 11.0764 28.9979 10.8998C29.0027 10.7232 28.9558 10.549 28.863 10.3988C28.7701 10.2485 28.6354 10.1286 28.4753 10.0539L14.8816 3.71014ZM14.4991 15.3337L3.18551 10.8115L14.4991 5.5317L25.8128 10.8115L14.4991 15.3337Z" fill="#D94F36"/>
<path d="M6.9659 16.9747C6.84921 16.9307 6.7247 16.9113 6.60016 16.9177C6.47562 16.9241 6.35373 16.9561 6.24213 17.0117C6.13052 17.0673 6.0316 17.1454 5.95155 17.241C5.8715 17.3366 5.81205 17.4477 5.7769 17.5674L4.87065 20.6486C4.80718 20.8649 4.8266 21.0971 4.92513 21.2999C5.02366 21.5027 5.19423 21.6614 5.40353 21.7452L13.5598 25.0077C13.7762 25.0944 14.0176 25.0944 14.234 25.0077L22.3903 21.7452C22.5996 21.6614 22.7701 21.5027 22.8687 21.2999C22.9672 21.0971 22.9866 20.8649 22.9232 20.6486L22.0169 17.5674C21.9818 17.4477 21.9223 17.3366 21.8423 17.241C21.7622 17.1454 21.6633 17.0673 21.5517 17.0117C21.4401 16.9561 21.3182 16.9241 21.1937 16.9177C21.0691 16.9113 20.9446 16.9307 20.8279 16.9747L13.8969 19.5738L6.9659 16.9747ZM6.84265 20.3695L7.2414 19.0137L13.5779 21.3899C13.7835 21.4673 14.0103 21.4673 14.2159 21.3899L20.5524 19.0137L20.9512 20.3695L13.8969 23.1879L6.84265 20.3677V20.3695Z" fill="#D94F36"/>
</svg>
