<svg width="28" height="28" viewBox="0 0 28 28" fill="none" xmlns="http://www.w3.org/2000/svg">
<path d="M24.0375 0.549254C24.0802 0.656106 24.1013 0.770314 24.0997 0.885343C24.0982 1.00037 24.0739 1.11396 24.0284 1.21962C23.9829 1.32527 23.917 1.42091 23.8345 1.50107C23.752 1.58123 23.6545 1.64432 23.5475 1.68675L19.603 3.26525L18.903 6.6375C19.561 6.80375 20.1543 7.01375 20.604 7.27975C21.003 7.516 21.584 7.97275 21.584 8.71475C21.584 8.79525 21.577 8.87225 21.5648 8.94575L19.8813 24.8148C19.8546 25.136 19.7588 25.4478 19.6005 25.7287C19.4423 26.0095 19.2253 26.2529 18.9643 26.4423C18.1103 27.0373 16.3498 27.9648 13.6968 27.9648C11.0438 27.9648 9.28329 27.0373 8.42929 26.4423C8.16833 26.2529 7.9513 26.0095 7.79304 25.7287C7.63478 25.4478 7.53902 25.136 7.51229 24.8148L5.85154 8.94575C5.83918 8.86939 5.83332 8.79211 5.83404 8.71475C5.83404 7.97275 6.41504 7.516 6.81404 7.27975C7.27254 7.01025 7.87629 6.79675 8.54654 6.62875C9.90104 6.28925 11.7263 6.08975 13.709 6.08975C14.955 6.08975 16.1398 6.1685 17.1828 6.312L17.9948 2.43575C18.0257 2.29657 18.0902 2.16705 18.1826 2.05847C18.275 1.94989 18.3926 1.86554 18.525 1.81275L22.9 0.0627543C23.1154 -0.0235215 23.3562 -0.0207381 23.5695 0.0704923C23.7828 0.161723 23.9512 0.333931 24.0375 0.549254ZM16.803 8.027C15.7767 7.8993 14.7433 7.83676 13.709 7.83975C11.826 7.83975 10.1513 8.03225 8.97179 8.32625C8.58129 8.41587 8.20122 8.54608 7.83779 8.71475C8.09329 8.8425 8.47129 8.97725 8.97179 9.10325C10.1513 9.39725 11.826 9.58975 13.709 9.58975C14.7083 9.58975 15.6498 9.53725 16.488 9.441L16.803 8.027ZM17.314 11.1C16.2378 11.2523 15.0075 11.3398 13.709 11.3398C11.7263 11.3398 9.90104 11.1403 8.54654 10.8008C8.28986 10.7371 8.03589 10.663 7.78529 10.5785L9.25179 24.631C9.27454 24.8428 9.35679 24.9565 9.43029 25.0073C10.055 25.443 11.4743 26.2148 13.6968 26.2148C15.9193 26.2148 17.3385 25.443 17.9633 25.0073C18.0368 24.9565 18.1208 24.8428 18.1418 24.631L19.6328 10.5785C19.3822 10.663 19.1282 10.7371 18.8715 10.8008C18.3578 10.9264 17.8379 11.0257 17.314 11.0983V11.1ZM7.52629 8.51175C7.52629 8.51175 7.53154 8.51525 7.53504 8.52225L7.52629 8.51175ZM19.8918 8.51175L19.883 8.52225C19.8865 8.51525 19.8918 8.51175 19.8918 8.51175ZM19.5785 8.71475C19.2395 8.55698 18.8853 8.43386 18.5215 8.34725L18.3483 9.126L18.4445 9.10325C18.945 8.97725 19.323 8.8425 19.5785 8.71475Z" fill="#D94F36"/>
</svg>
