<svg width="27" height="27" viewBox="0 0 27 27" fill="none" xmlns="http://www.w3.org/2000/svg">
<g clip-path="url(#clip0_3842_35546)">
<path d="M13.5 25.3125C10.3671 25.3125 7.36257 24.068 5.1473 21.8527C2.93203 19.6374 1.6875 16.6329 1.6875 13.5C1.6875 10.3671 2.93203 7.36257 5.1473 5.1473C7.36257 2.93203 10.3671 1.6875 13.5 1.6875C16.6329 1.6875 19.6374 2.93203 21.8527 5.1473C24.068 7.36257 25.3125 10.3671 25.3125 13.5C25.3125 16.6329 24.068 19.6374 21.8527 21.8527C19.6374 24.068 16.6329 25.3125 13.5 25.3125ZM13.5 27C17.0804 27 20.5142 25.5777 23.0459 23.0459C25.5777 20.5142 27 17.0804 27 13.5C27 9.91958 25.5777 6.4858 23.0459 3.95406C20.5142 1.42232 17.0804 0 13.5 0C9.91958 0 6.4858 1.42232 3.95406 3.95406C1.42232 6.4858 0 9.91958 0 13.5C0 17.0804 1.42232 20.5142 3.95406 23.0459C6.4858 25.5777 9.91958 27 13.5 27Z" fill="#D94F36"/>
<path d="M7.17185 16.7068C7.36564 16.5949 7.59594 16.5646 7.81209 16.6225C8.02823 16.6804 8.21252 16.8218 8.32441 17.0156C8.84266 17.9139 9.58844 18.6599 10.4867 19.1783C11.3849 19.6967 12.4038 19.9694 13.4409 19.9687C14.478 19.9694 15.497 19.6967 16.3952 19.1783C17.2934 18.6599 18.0392 17.9139 18.5574 17.0156C18.6124 16.9189 18.686 16.834 18.7739 16.7658C18.8619 16.6976 18.9624 16.6475 19.0698 16.6184C19.1772 16.5892 19.2893 16.5816 19.3997 16.5959C19.51 16.6103 19.6164 16.6463 19.7128 16.7019C19.8092 16.7576 19.8936 16.8317 19.9611 16.9201C20.0287 17.0085 20.0782 17.1094 20.1066 17.217C20.1351 17.3246 20.1419 17.4367 20.1269 17.547C20.1118 17.6572 20.0751 17.7634 20.0188 17.8594C19.3524 19.0142 18.3936 19.9732 17.2389 20.6397C16.0842 21.3062 14.7742 21.6569 13.4409 21.6562C12.1076 21.6569 10.7977 21.3062 9.64293 20.6397C8.48819 19.9732 7.52939 19.0142 6.86304 17.8594C6.75116 17.6656 6.72084 17.4353 6.77875 17.2191C6.83666 17.003 6.97806 16.8187 7.17185 16.7068ZM11.7534 11.5312C11.7534 12.9285 10.9974 14.0625 10.0659 14.0625C9.13441 14.0625 8.37841 12.9285 8.37841 11.5312C8.37841 10.134 9.13441 9 10.0659 9C10.9974 9 11.7534 10.134 11.7534 11.5312ZM14.7184 10.7938C14.8152 10.74 14.9217 10.7057 15.0318 10.693C15.1418 10.6803 15.2534 10.6894 15.3599 10.7198C15.4665 10.7502 15.566 10.8013 15.6528 10.8702C15.7396 10.9391 15.812 11.0243 15.8659 11.1212C15.9991 11.37 16.1967 11.5785 16.438 11.7248C16.6794 11.8711 16.9556 11.95 17.2378 11.9531C17.8099 11.9531 18.3262 11.6325 18.6097 11.1212C18.7185 10.9256 18.9005 10.7812 19.1157 10.7198C19.3309 10.6585 19.5616 10.6851 19.7572 10.7938C19.9528 10.9026 20.0972 11.0846 20.1586 11.2998C20.22 11.515 20.1934 11.7457 20.0846 11.9413C19.8051 12.453 19.3937 12.8805 18.893 13.1794C18.3924 13.4782 17.8208 13.6375 17.2378 13.6406C16.0059 13.6406 14.9495 12.9454 14.391 11.9413C14.3371 11.8445 14.3029 11.738 14.2902 11.6279C14.2775 11.5178 14.2866 11.4063 14.317 11.2998C14.3474 11.1932 14.3985 11.0937 14.4674 11.0069C14.5362 10.9201 14.6215 10.8477 14.7184 10.7938Z" fill="#D94F36"/>
</g>
<defs>
<clipPath id="clip0_3842_35546">
<rect width="27" height="27" fill="white"/>
</clipPath>
</defs>
</svg>
