<svg width="26" height="26" viewBox="0 0 26 26" fill="none" xmlns="http://www.w3.org/2000/svg">
<path d="M17.3673 11.0722C17.443 11.1477 17.503 11.2373 17.544 11.336C17.5849 11.4348 17.606 11.5406 17.606 11.6474C17.606 11.7543 17.5849 11.8601 17.544 11.9589C17.503 12.0576 17.443 12.1472 17.3673 12.2227L12.4923 17.0977C12.4168 17.1734 12.3272 17.2334 12.2284 17.2744C12.1297 17.3153 12.0239 17.3364 11.917 17.3364C11.8102 17.3364 11.7043 17.3153 11.6056 17.2744C11.5069 17.2334 11.4173 17.1734 11.3418 17.0977L8.90429 14.6602C8.82875 14.5847 8.76883 14.495 8.72794 14.3963C8.68706 14.2976 8.66602 14.1918 8.66602 14.0849C8.66602 13.9781 8.68706 13.8723 8.72794 13.7736C8.76883 13.6749 8.82875 13.5852 8.90429 13.5097C9.05686 13.3571 9.26378 13.2714 9.47954 13.2714C9.58638 13.2714 9.69216 13.2925 9.79087 13.3333C9.88957 13.3742 9.97925 13.4342 10.0548 13.5097L11.917 15.3736L16.2168 11.0722C16.2923 10.9965 16.3819 10.9365 16.4806 10.8955C16.5794 10.8546 16.6852 10.8335 16.792 10.8335C16.8989 10.8335 17.0047 10.8546 17.1034 10.8955C17.2022 10.9365 17.2918 10.9965 17.3673 11.0722Z" fill="#D94F36"/>
<path d="M5.6875 0C5.90299 0 6.10965 0.0856024 6.26202 0.237976C6.4144 0.390349 6.5 0.597012 6.5 0.8125V1.625H19.5V0.8125C19.5 0.597012 19.5856 0.390349 19.738 0.237976C19.8903 0.0856024 20.097 0 20.3125 0C20.528 0 20.7347 0.0856024 20.887 0.237976C21.0394 0.390349 21.125 0.597012 21.125 0.8125V1.625H22.75C23.612 1.625 24.4386 1.96741 25.0481 2.5769C25.6576 3.1864 26 4.01305 26 4.875V22.75C26 23.612 25.6576 24.4386 25.0481 25.0481C24.4386 25.6576 23.612 26 22.75 26H3.25C2.38805 26 1.5614 25.6576 0.951903 25.0481C0.34241 24.4386 0 23.612 0 22.75V4.875C0 4.01305 0.34241 3.1864 0.951903 2.5769C1.5614 1.96741 2.38805 1.625 3.25 1.625H4.875V0.8125C4.875 0.597012 4.9606 0.390349 5.11298 0.237976C5.26535 0.0856024 5.47201 0 5.6875 0V0ZM1.625 6.5V22.75C1.625 23.181 1.7962 23.5943 2.10095 23.899C2.4057 24.2038 2.81902 24.375 3.25 24.375H22.75C23.181 24.375 23.5943 24.2038 23.899 23.899C24.2038 23.5943 24.375 23.181 24.375 22.75V6.5H1.625Z" fill="#D94F36"/>
</svg>
