<svg width="38" height="36" viewBox="0 0 38 36" fill="none" xmlns="http://www.w3.org/2000/svg">
<path d="M28.2385 13.3211L20.5688 1.211C20.2201 0.844023 19.6972 0.477051 19.1743 0.477051C18.6514 0.477051 18.1284 0.660537 17.7798 1.211L10.1101 13.3211H1.74312C0.697248 13.3211 0 14.055 0 15.156C0 15.3394 0 15.5229 0 15.7064L4.3578 32.7706C4.70642 34.2385 6.10092 35.5229 7.66972 35.5229H30.3303C31.8991 35.5229 33.2936 34.422 33.6422 32.7706L38 15.7064C38 15.5229 38 15.3394 38 15.156C38 14.055 37.3028 13.3211 36.2569 13.3211H28.2385ZM13.945 13.3211L19.1743 5.24769L24.4037 13.3211H13.945Z" fill="#D94F36"/>
</svg>
