<svg width="28" height="28" viewBox="0 0 28 28" fill="none" xmlns="http://www.w3.org/2000/svg">
<path d="M14.3285 2.59056C14.2472 2.50907 14.1506 2.44442 14.0443 2.40031C13.938 2.3562 13.8241 2.3335 13.709 2.3335C13.5939 2.3335 13.4799 2.3562 13.3736 2.40031C13.2673 2.44442 13.1708 2.50907 13.0895 2.59056L2.58949 13.0906C2.50828 13.172 2.44392 13.2686 2.40008 13.3749C2.35624 13.4812 2.33378 13.5951 2.33399 13.7101V25.9601C2.33399 26.1921 2.42617 26.4147 2.59027 26.5788C2.75436 26.7429 2.97692 26.8351 3.20899 26.8351H11.084C11.3161 26.8351 11.5386 26.7429 11.7027 26.5788C11.8668 26.4147 11.959 26.1921 11.959 25.9601V18.9601H15.459V25.9601C15.459 26.1921 15.5512 26.4147 15.7153 26.5788C15.8794 26.7429 16.1019 26.8351 16.334 26.8351H24.209C24.441 26.8351 24.6636 26.7429 24.8277 26.5788C24.9918 26.4147 25.084 26.1921 25.084 25.9601V13.7101C25.0842 13.5951 25.0617 13.4812 25.0179 13.3749C24.9741 13.2686 24.9097 13.172 24.8285 13.0906L22.459 10.7228V4.96006C22.459 4.728 22.3668 4.50544 22.2027 4.34134C22.0386 4.17725 21.816 4.08506 21.584 4.08506H19.834C19.6019 4.08506 19.3794 4.17725 19.2153 4.34134C19.0512 4.50544 18.959 4.728 18.959 4.96006V7.22281L14.3285 2.59056ZM4.08399 25.0851V14.0723L13.709 4.44731L23.334 14.0723V25.0851H17.209V18.0851C17.209 17.853 17.1168 17.6304 16.9527 17.4663C16.7886 17.3022 16.5661 17.2101 16.334 17.2101H11.084C10.8519 17.2101 10.6294 17.3022 10.4653 17.4663C10.3012 17.6304 10.209 17.853 10.209 18.0851V25.0851H4.08399Z" fill="#D94F36"/>
</svg>
