<svg width="28" height="30" viewBox="0 0 28 30" fill="none" xmlns="http://www.w3.org/2000/svg">
<path fill-rule="evenodd" clip-rule="evenodd" d="M12.747 1.84354C12.9107 1.6562 13.1086 1.50687 13.3283 1.40477C13.548 1.30268 13.785 1.25 14.0245 1.25C14.264 1.25 14.501 1.30268 14.7207 1.40477C14.9405 1.50687 15.1383 1.6562 15.302 1.84354L26.4058 14.5373C27.4558 15.7335 26.6613 17.6929 25.1283 17.6929H20.1495V19.5679C20.1495 20.0652 19.9651 20.5421 19.637 20.8937C19.3088 21.2454 18.8636 21.4429 18.3995 21.4429H9.64951C9.18539 21.4429 8.74027 21.2454 8.41208 20.8937C8.08389 20.5421 7.89951 20.0652 7.89951 19.5679V17.6929H2.91901C1.38951 17.6929 0.595014 15.7335 1.64151 14.5354L12.747 1.84354ZM25.13 15.8179L14.0245 3.12604L2.91901 15.8179H7.89951C8.36364 15.8179 8.80876 16.0155 9.13695 16.3671C9.46514 16.7187 9.64951 17.1956 9.64951 17.6929V19.5679H18.3995V17.6929C18.3995 17.1956 18.5839 16.7187 18.9121 16.3671C19.2403 16.0155 19.6854 15.8179 20.1495 15.8179H25.13ZM7.89951 25.1929C7.89951 24.6956 8.08389 24.2187 8.41208 23.8671C8.74027 23.5155 9.18539 23.3179 9.64951 23.3179H18.3995C18.8636 23.3179 19.3088 23.5155 19.637 23.8671C19.9651 24.2187 20.1495 24.6956 20.1495 25.1929V27.0679C20.1495 27.5652 19.9651 28.0421 19.637 28.3937C19.3088 28.7454 18.8636 28.9429 18.3995 28.9429H9.64951C9.18539 28.9429 8.74027 28.7454 8.41208 28.3937C8.08389 28.0421 7.89951 27.5652 7.89951 27.0679V25.1929ZM18.3995 25.1929H9.64951V27.0679H18.3995V25.1929Z" fill="#D94F36"/>
</svg>
