<svg width="23" height="28" viewBox="0 0 23 28" fill="none" xmlns="http://www.w3.org/2000/svg">
<path d="M12.512 0.0806474C10.839 -0.337603 9.285 0.927647 9.173 2.56565C9.047 4.4049 8.7705 6.09365 8.424 7.09815C8.20525 7.72815 7.58575 8.8709 6.604 9.9664C5.62925 11.0566 4.3605 12.0279 2.87475 12.4339C1.69875 12.7541 0.5 13.7726 0.5 15.2601V22.2619C0.5 23.7406 1.6935 24.8239 3.034 24.9656C4.9065 25.1651 5.771 25.6919 6.653 26.2309L6.737 26.2834C7.213 26.5721 7.7485 26.8924 8.4345 27.1304C9.12925 27.3684 9.94125 27.5101 11 27.5101H17.125C18.7647 27.5101 19.9233 26.6754 20.5095 25.6481C20.7928 25.1634 20.946 24.6136 20.954 24.0521C20.954 23.7861 20.9137 23.5061 20.8193 23.2401C21.171 22.7799 21.4842 22.2286 21.6733 21.6634C21.8657 21.0859 21.9742 20.3299 21.6803 19.6526C21.801 19.4251 21.8902 19.1819 21.9585 18.9474C22.0933 18.4749 22.1562 17.9534 22.1562 17.4476C22.1562 16.9436 22.0933 16.4239 21.9585 15.9496C21.8973 15.7316 21.8165 15.5196 21.717 15.3161C22.0234 14.8802 22.2206 14.3769 22.2918 13.8488C22.3631 13.3207 22.3064 12.7832 22.1265 12.2816C21.766 11.2456 20.933 10.3566 20.0265 10.0556C18.5443 9.56215 16.8713 9.57265 15.6235 9.6864C15.3645 9.70971 15.106 9.73888 14.8483 9.7739C15.4553 7.17407 15.4181 4.4653 14.7397 1.88315C14.6217 1.46943 14.3953 1.09475 14.084 0.797849C13.7726 0.500952 13.3876 0.29262 12.9688 0.194397L12.512 0.0806474ZM17.125 25.7619H11C10.1075 25.7619 9.48975 25.6411 9.005 25.4749C8.51325 25.3051 8.1195 25.0759 7.647 24.7871L7.577 24.7451C6.60575 24.1519 5.4805 23.4659 3.2195 23.2261C2.63675 23.1631 2.25 22.7186 2.25 22.2636V15.2601C2.25 14.8156 2.6455 14.3099 3.335 14.1226C5.25125 13.5976 6.79475 12.3796 7.9095 11.1336C9.02075 9.89115 9.7715 8.5524 10.076 7.67215C10.5013 6.44715 10.7882 4.57815 10.9195 2.68465C10.9633 2.05115 11.5495 1.64515 12.0868 1.77815L12.5453 1.89365C12.8253 1.96365 12.9967 2.1439 13.0492 2.3399C13.7639 5.06293 13.6758 7.93456 12.7955 10.6086C12.7457 10.7574 12.7367 10.9168 12.7696 11.0701C12.8025 11.2235 12.876 11.3652 12.9825 11.4804C13.0889 11.5956 13.2244 11.6801 13.3747 11.725C13.525 11.7699 13.6846 11.7736 13.8368 11.7356L13.842 11.7339L13.8665 11.7286L13.968 11.7041C14.5664 11.5771 15.1718 11.4853 15.781 11.4294C16.9412 11.3244 18.3307 11.3349 19.4735 11.7164C19.7798 11.8179 20.261 12.2414 20.471 12.8539C20.6582 13.3929 20.6232 14.0264 20.0055 14.6424L19.3878 15.2601L20.0055 15.8796C20.0807 15.9549 20.1893 16.1264 20.275 16.4309C20.359 16.7231 20.4062 17.0784 20.4062 17.4476C20.4062 17.8186 20.359 18.1721 20.275 18.4661C20.1875 18.7706 20.0807 18.9421 20.0055 19.0174L19.3878 19.6351L20.0055 20.2546C20.0877 20.3369 20.1963 20.5644 20.0142 21.1086C19.8246 21.6364 19.5231 22.117 19.1305 22.5174L18.5128 23.1351L19.1305 23.7546C19.141 23.7634 19.2023 23.8421 19.2023 24.0521C19.1945 24.3088 19.1216 24.5593 18.9905 24.7801C18.7017 25.2841 18.1103 25.7601 17.125 25.7601V25.7619Z" fill="#D94F36"/>
</svg>
