<svg width="195" height="195" viewBox="0 0 195 195" fill="none" xmlns="http://www.w3.org/2000/svg">
<path fill-rule="evenodd" clip-rule="evenodd" d="M57.7359 0.624834C45.5302 2.55459 33.5499 10.3532 26.958 20.6597C24.8241 23.996 22.1753 29.8547 21.2365 33.3136C19.6093 39.3125 19.4858 41.8569 19.6604 65.8147C19.8172 87.3495 19.8798 88.9823 20.6715 92.2219C22.3532 99.1052 24.8851 104.937 28.608 110.504C31.2524 114.457 38.398 121.587 42.4016 124.266L45.5497 126.373V133.025V139.677L34.6836 139.845C24.3599 140.005 23.662 140.065 20.7032 141.049C15.8531 142.662 12.4104 144.795 8.75214 148.454C5.10562 152.101 2.97913 155.527 1.33317 160.406C0.292876 163.491 0.281502 163.663 0.14136 178.24L0 192.958L1.02446 193.982C2.37103 195.329 4.22618 195.34 5.55651 194.009L6.55375 193.012V180.068C6.55375 172.657 6.73939 166.093 6.98799 164.713C7.70413 160.736 10.171 156.15 13.2489 153.071C16.3511 149.968 21.1126 147.383 25.0094 146.686C26.3348 146.449 32.0014 146.255 37.6018 146.256L47.7838 146.256L52.6583 149.505C55.3393 151.292 57.8984 152.75 58.3452 152.745C58.792 152.74 61.9454 152.029 65.3523 151.166L71.5469 149.596L77.7416 151.166C81.1489 152.029 84.3018 152.74 84.7487 152.745C85.1955 152.75 87.7546 151.292 90.4356 149.505L95.3101 146.256L99.6768 146.256L104.044 146.255L104.052 149.403C104.069 156.31 105.608 162.881 108.693 169.222C113.407 178.909 120.384 185.82 130.244 190.567C147.422 198.836 167.974 195.247 181.624 181.595C195.864 167.353 199.047 146.246 189.663 128.286C183.063 115.656 170.93 106.916 156.816 104.627C139.36 101.796 121.79 109.425 111.816 124.168C109.582 127.469 106.716 133.607 105.816 137.012L105.092 139.755H101.318H97.5442L97.5588 132.95L97.5731 126.145L100.277 124.52C104.129 122.205 111.949 114.395 114.718 110.097C119.195 103.149 121.784 96.4397 122.908 88.8686C123.804 82.8339 123.83 41.0408 122.941 36.842C121.706 31.0121 117.88 25.0783 113.064 21.521C110.005 19.2618 105.404 17.1785 102.636 16.799L100.794 16.5463V9.27053C100.794 2.08698 100.781 1.98175 99.7966 0.997377L98.7998 0L79.994 0.0394076C66.4048 0.0678461 60.2308 0.229945 57.7359 0.624834ZM94.2945 13.6281C94.2945 20.6549 94.3088 20.7706 95.2918 21.7534C95.9604 22.4221 96.7448 22.7508 97.6734 22.7508C104.596 22.7508 111.757 27.2351 114.824 33.492C116.688 37.293 117.042 39.4925 117.042 47.259V53.7812L112.836 49.6414C109.681 46.5367 108.366 45.5015 107.576 45.5015C106.996 45.5015 104.716 46.4039 102.51 47.5069C97.885 49.8189 90.8316 52.3333 85.5611 53.5488C70.765 56.9614 55.5541 54.9082 40.5533 47.4744C38.3638 46.3892 36.098 45.5015 35.5184 45.5015C34.7287 45.5015 33.3984 46.546 30.2145 49.6657L25.9648 53.8299L26.1638 46.5172C26.3811 38.5357 26.9478 35.5306 29.2591 30.0985C32.8256 21.7152 40.7113 13.6379 48.8379 10.0437C56.0737 6.84311 58.2404 6.58025 77.7416 6.53678L94.2945 6.50022V13.6281ZM38.9606 53.9827C47.8399 58.4463 61.7049 61.7521 71.5469 61.7521C81.4247 61.7521 95.254 58.4467 104.205 53.9465L106.6 52.7424L111.849 57.958L117.097 63.174L116.912 75.5651C116.772 84.9209 116.569 88.6216 116.084 90.6728C111.53 109.913 96.7038 123.594 77.4369 126.334C59.0431 128.949 40.1341 119.143 31.4226 102.471C26.9856 93.9802 26.0558 89.0404 26.0533 73.9457L26.0517 63.1854L31.2252 57.9998C34.0702 55.1479 36.4518 52.8143 36.5172 52.8143C36.5826 52.8143 37.6822 53.34 38.9606 53.9827ZM156.158 111.11C171.283 113.748 183.236 124.837 187.407 140.102C188.546 144.267 188.649 154.001 187.6 158.184C185.733 165.622 182.381 171.545 176.978 176.948C169.185 184.743 160.792 188.235 149.742 188.28C142.453 188.31 138.399 187.398 132.275 184.352C121.872 179.177 114.345 169.702 111.484 158.18C110.546 154.401 110.522 145.126 111.441 141.118C113.091 133.918 116.588 127.606 121.902 122.233C131.128 112.904 143.468 108.897 156.158 111.11ZM142.227 114.545C127.878 117.595 116.889 129.008 114.358 143.489C110.722 164.299 126.258 183.878 147.387 185.114C157.704 185.718 167.157 182.158 174.516 174.897C190.84 158.79 188.137 132.071 168.914 119.52C161.157 114.455 151.297 112.617 142.227 114.545ZM158.137 121.578C162.299 122.922 166.11 125.109 168.941 127.778L171.271 129.975H149.539H127.807L130.136 127.778C133.72 124.4 138.146 122.126 143.649 120.837C147.361 119.967 154.234 120.319 158.137 121.578ZM55.2089 130.583C60.8206 132.492 64.3782 133.024 71.5469 133.024C78.7157 133.024 82.2732 132.492 87.885 130.583C89.4777 130.041 90.8402 129.598 90.9129 129.598C90.9856 129.598 91.0449 132.221 91.0449 135.428V141.258L87.4983 143.618L83.9517 145.979L77.7493 144.449L71.5469 142.919L65.3446 144.449L59.1422 145.979L55.5956 143.618L52.049 141.258V135.428C52.049 132.221 52.1083 129.598 52.181 129.598C52.2537 129.598 53.6161 130.041 55.2089 130.583ZM176.463 138.028C177.321 140.179 178.379 143.837 178.379 144.656C178.379 145.118 177.602 145.663 176.044 146.295C170.352 148.603 162.951 154.878 159.141 160.626C156.318 164.886 153.195 173.252 153.195 176.553C153.195 178.579 152.9 178.756 149.522 178.756C145.975 178.756 146.168 178.929 145.674 175.303C145.314 172.659 143.622 167.312 142.332 164.74C138.437 156.976 130.783 149.607 123.318 146.434C121.587 145.698 120.698 145.091 120.698 144.642C120.698 143.835 121.762 140.164 122.615 138.028L123.223 136.505H149.539H175.854L176.463 138.028ZM146.289 140.286C144.295 140.914 140.895 144.436 140.284 146.505C139.159 150.314 139.952 153.351 142.823 156.222C144.926 158.326 146.984 159.255 149.539 159.255C152.094 159.255 154.151 158.326 156.255 156.222C160.224 152.252 160.343 147.202 156.566 143C153.937 140.076 150.139 139.072 146.289 140.286ZM151.791 147.252C152.42 147.881 152.788 148.714 152.788 149.505C152.788 150.296 152.42 151.129 151.791 151.758C151.163 152.387 150.33 152.755 149.539 152.755C148.747 152.755 147.915 152.387 147.286 151.758C146.658 151.129 146.289 150.296 146.289 149.505C146.289 148.714 146.658 147.881 147.286 147.252C147.915 146.623 148.747 146.255 149.539 146.255C150.33 146.255 151.163 146.623 151.791 147.252ZM123.102 153.626C129.061 156.981 133.444 161.601 136.344 167.584C138.082 171.169 139.658 176.179 139.194 176.643C138.838 176.999 135.42 175.233 132.653 173.262C127.886 169.868 124.024 164.826 122.073 159.45C121.131 156.854 120.212 152.349 120.625 152.349C120.741 152.349 121.856 152.923 123.102 153.626ZM178.313 154.578C177.152 161.988 172.149 169.548 165.546 173.873C162.595 175.807 160.216 176.976 159.892 176.652C159.491 176.251 161.085 171.047 162.555 167.958C165.393 161.999 170.11 156.949 175.942 153.629C177.171 152.929 178.286 152.355 178.42 152.353C178.553 152.351 178.505 153.352 178.313 154.578ZM69.6244 160.054C68.4443 161.153 68.1372 162.357 68.6941 163.702C69.572 165.821 72.1944 166.364 73.7994 164.758C76.618 161.939 72.5365 157.341 69.6244 160.054ZM69.6244 179.555C68.4443 180.654 68.1372 181.858 68.6941 183.202C69.572 185.321 72.1944 185.864 73.7994 184.259C76.618 181.44 72.5365 176.841 69.6244 179.555Z" fill="#E46B54"/>
</svg>
