<svg width="22" height="22" viewBox="0 0 22 22" fill="none" xmlns="http://www.w3.org/2000/svg">
<circle cx="11" cy="11" r="10" fill="white" stroke="#CFCFCF" stroke-width="2"/>
<path d="M9.99512 8.47363H11.9912V16H9.99512V8.47363ZM10.9932 7.65332C10.6969 7.65332 10.444 7.55306 10.2344 7.35254C10.0247 7.15202 9.91992 6.90365 9.91992 6.60742C9.91992 6.3112 10.0247 6.06283 10.2344 5.8623C10.444 5.66634 10.6969 5.56836 10.9932 5.56836C11.2939 5.56836 11.5492 5.66634 11.7588 5.8623C11.9684 6.06283 12.0732 6.3112 12.0732 6.60742C12.0732 6.90365 11.9684 7.15202 11.7588 7.35254C11.5492 7.55306 11.2939 7.65332 10.9932 7.65332Z" fill="#CFCFCF"/>
</svg>
