<svg width="25" height="25" viewBox="0 0 25 25" fill="none" xmlns="http://www.w3.org/2000/svg">
<path d="M18.1008 0H6.89895C3.09487 0 0 3.09502 0 6.8991V18.1009C0 21.9051 3.09487 25 6.89895 25H18.1008C21.9051 25 25 21.905 25 18.1009V6.8991C25.0001 3.09502 21.9051 0 18.1008 0ZM22.782 18.1009C22.782 20.6821 20.6821 22.7819 18.1009 22.7819H6.89895C4.31794 22.782 2.21812 20.6821 2.21812 18.1009V6.8991C2.21812 4.31809 4.31794 2.21812 6.89895 2.21812H18.1008C20.6819 2.21812 22.7819 4.31809 22.7819 6.8991V18.1009H22.782Z" fill="white"/>
<path d="M12.5005 6.05859C8.94836 6.05859 6.05859 8.94836 6.05859 12.5005C6.05859 16.0524 8.94836 18.942 12.5005 18.942C16.0526 18.942 18.9423 16.0524 18.9423 12.5005C18.9423 8.94836 16.0526 6.05859 12.5005 6.05859ZM12.5005 16.7238C10.1716 16.7238 8.27672 14.8292 8.27672 12.5003C8.27672 10.1713 10.1714 8.27657 12.5005 8.27657C14.8295 8.27657 16.7242 10.1713 16.7242 12.5003C16.7242 14.8292 14.8293 16.7238 12.5005 16.7238Z" fill="white"/>
<path d="M19.2126 4.17773C18.7852 4.17773 18.3654 4.35075 18.0636 4.65389C17.7603 4.95556 17.5859 5.37552 17.5859 5.80436C17.5859 6.23186 17.7604 6.65168 18.0636 6.95482C18.3652 7.25649 18.7852 7.43098 19.2126 7.43098C19.6414 7.43098 20.0599 7.25649 20.363 6.95482C20.6662 6.65168 20.8392 6.23171 20.8392 5.80436C20.8392 5.37552 20.6662 4.95556 20.363 4.65389C20.0614 4.35075 19.6414 4.17773 19.2126 4.17773Z" fill="white"/>
</svg>
