<svg width="211" height="51" viewBox="0 0 211 51" fill="none" xmlns="http://www.w3.org/2000/svg">
<path d="M164.125 36.3813V14.7139H171.327V36.3813H164.125Z" fill="#D94F36"/>
<path d="M172.727 36.3813V14.7139H178.917L183.87 23.3811V14.7139H190.06V36.3813H183.87L178.917 28.3336V36.3813H172.727Z" fill="#D94F36"/>
<path d="M53.8672 14.7139V36.3612H61.5653V30.1908L64.0818 36.3612H69.0345L71.4984 29.5716V36.3612H79.1966V14.7139H71.5106L66.5581 27.0952L61.5653 14.7139H53.8672Z" fill="#D94F36"/>
<path d="M100.305 14.7139V36.3612H108.003V30.1908L110.519 36.3612H115.472L117.936 29.5716V36.3612H125.634V14.7139H117.948L112.996 27.0952L108.003 14.7139H100.305Z" fill="#D94F36"/>
<path fill-rule="evenodd" clip-rule="evenodd" d="M79.25 36.3813L86.0597 14.7139H93.4886L100.298 36.3813H93.4886L92.7315 34.5241H86.7715L86.0597 36.3813H79.25ZM87.9169 29.5716L89.7742 24.6191L91.6314 29.5716H87.9169Z" fill="#D94F36"/>
<path fill-rule="evenodd" clip-rule="evenodd" d="M125.688 36.3813L132.497 14.7139H139.926L146.736 36.3813H139.926L139.169 34.5241H133.209L132.497 36.3813H125.688ZM134.354 29.5716L136.212 24.6191L138.069 29.5716H134.354Z" fill="#D94F36"/>
<path fill-rule="evenodd" clip-rule="evenodd" d="M189.951 36.3813L196.761 14.7139H204.19L211 36.3813H204.19L203.433 34.5241H197.473L196.761 36.3813H189.951ZM198.618 29.5716L200.476 24.6191L202.333 29.5716H198.618Z" fill="#D94F36"/>
<path d="M146.729 20.9047V14.7139H162.824V19.6666L155.705 30.1908H162.824V36.3813H146.729V30.8097L153.538 20.9047H146.729Z" fill="#D94F36"/>
<path d="M43.3924 9.5406C37.808 6.87083 31.5445 5.3667 24.9415 5.3667C18.3381 5.3667 12.0746 6.87083 6.49036 9.5406C5.50933 10.0295 5.132 11.1951 5.62253 12.173L7.28275 15.407C7.92406 15.0685 8.60344 14.73 9.24489 14.4292C9.16928 14.2787 9.13161 14.0907 9.13161 13.9028C9.13161 13.1882 9.69772 12.6242 10.4145 12.6242C10.9427 12.6242 11.3955 12.9627 11.5841 13.4139C14.0746 12.4361 16.6403 11.7594 19.2815 11.3456C14.4518 12.8499 9.924 15.6325 8.26389 16.723C8.18828 16.7607 8.15061 16.7984 8.07501 16.8358L11.0936 22.7398C11.6597 22.1756 12.3765 21.7243 13.1312 21.4235C13.8103 21.1603 14.5651 21.0099 15.3575 21.0099C18.3761 21.0476 20.9039 23.4542 21.1305 26.4251C21.2058 27.4026 21.0172 28.3428 20.6776 29.1702C21.1681 29.4334 21.5454 29.9597 21.5454 30.5239C21.5454 31.3887 20.8662 32.0657 19.9985 32.0657C19.5457 32.0657 19.1305 31.84 18.8289 31.5391C18.0742 32.1031 17.2062 32.4793 16.2252 32.6297L23.9225 47.5586C24.3377 48.386 25.545 48.386 25.9601 47.5586L28.7901 42.106C27.6959 41.8802 26.7148 41.3539 25.9601 40.6393C25.6959 40.9027 25.3187 41.0531 24.9035 41.0531C24.0358 41.0531 23.3567 40.3761 23.3567 39.5113C23.3567 38.872 23.7716 38.308 24.3377 38.0822C24.0735 37.2551 23.9981 36.3526 24.1491 35.4125C24.5263 33.0056 26.4506 31.0502 28.8655 30.6367C30.8275 30.2982 32.6388 30.8998 33.9594 32.1031L41.3925 17.6632C41.1285 17.3623 40.7134 16.9488 40.2229 16.4599C40.0343 16.6103 39.8077 16.723 39.5814 16.723C39.0532 16.723 38.6381 16.3095 38.6381 15.7829C38.6381 15.5951 38.7137 15.407 38.8267 15.2566C37.3175 14.0533 35.2799 12.7369 32.6765 11.7594C36.1479 12.5115 39.4681 13.7524 42.5624 15.407L44.2225 12.173C44.7886 11.1951 44.3734 10.0295 43.3924 9.5406ZM15.9233 15.7829C15.6214 15.7829 15.3951 15.5574 15.3951 15.2566C15.3951 14.9557 15.6214 14.73 15.9233 14.73C16.2252 14.73 16.4517 14.9557 16.4517 15.2566C16.4517 15.5574 16.2252 15.7829 15.9233 15.7829ZM25.545 9.8791C26.0734 9.8791 26.4883 10.2927 26.4883 10.8192C26.4883 11.3455 26.0734 11.7594 25.545 11.7594C25.0168 11.7594 24.6019 11.3455 24.6019 10.8192C24.6019 10.2927 25.0168 9.8791 25.545 9.8791ZM25.545 28.719C25.0168 28.719 24.6019 28.3051 24.6019 27.7788C24.6019 27.2522 25.0168 26.8387 25.545 26.8387C26.0734 26.8387 26.4883 27.2522 26.4883 27.7788C26.5262 28.3051 26.0734 28.719 25.545 28.719ZM36.2989 19.3177C36.2989 22.5517 33.6575 25.1841 30.4126 25.1841C27.1677 25.1841 24.5263 22.5517 24.5263 19.3177C24.5263 16.0837 27.1677 13.4516 30.4126 13.4516C33.6575 13.4516 36.2989 16.0837 36.2989 19.3177Z" fill="#FFDD58"/>
<path d="M30.3746 25.1837C33.6253 25.1837 36.2606 22.5571 36.2606 19.3173C36.2606 16.0774 33.6253 13.4512 30.3746 13.4512C27.1236 13.4512 24.4883 16.0774 24.4883 19.3173C24.4883 22.5571 27.1236 25.1837 30.3746 25.1837Z" fill="#D94F36"/>
<path d="M13.6964 41.6919C13.2439 41.6919 12.9043 42.0304 12.9043 42.4816C12.9043 42.9329 13.2439 43.2714 13.6964 43.2714C14.1493 43.2714 14.4888 42.9329 14.4888 42.4816C14.4888 42.0681 14.1493 41.6919 13.6964 41.6919Z" fill="#D94F36"/>
<path d="M47.392 21.2725C46.9392 21.2725 46.5996 21.611 46.5996 22.0622C46.5996 22.5134 46.9392 22.8519 47.392 22.8519C47.8448 22.8519 48.1844 22.5134 48.1844 22.0622C48.1844 21.611 47.8448 21.2725 47.392 21.2725Z" fill="#D94F36"/>
<path d="M2.41454 23.8296C1.81081 23.8296 1.32031 24.3185 1.32031 24.9202C1.32031 25.5218 1.81081 26.0105 2.41454 26.0105C3.01826 26.0105 3.50876 25.5218 3.50876 24.9202C3.50876 24.3185 3.01826 23.8296 2.41454 23.8296Z" fill="#D94F36"/>
<path d="M0.528251 15.7824C0.820005 15.7824 1.0565 15.5468 1.0565 15.2561C1.0565 14.9653 0.820005 14.7295 0.528251 14.7295C0.236497 14.7295 0 14.9653 0 15.2561C0 15.5468 0.236497 15.7824 0.528251 15.7824Z" fill="#D94F36"/>
<path d="M36.5614 1.94449C36.8532 1.94449 37.0895 1.70892 37.0895 1.41818C37.0895 1.12743 36.8532 0.891602 36.5614 0.891602C36.2696 0.891602 36.0332 1.12743 36.0332 1.41818C36.0332 1.70892 36.2696 1.94449 36.5614 1.94449Z" fill="#D94F36"/>
<path d="M37.0898 47.4836C37.5485 47.4836 37.9201 47.113 37.9201 46.6562C37.9201 46.1994 37.5485 45.8291 37.0898 45.8291C36.6314 45.8291 36.2598 46.1994 36.2598 46.6562C36.2598 47.113 36.6314 47.4836 37.0898 47.4836Z" fill="#D94F36"/>
<path d="M15.9227 14.6919C15.6208 14.6919 15.3945 14.9176 15.3945 15.2185C15.3945 15.5193 15.6208 15.745 15.9227 15.745C16.2246 15.745 16.4511 15.5193 16.4511 15.2185C16.4511 14.9553 16.2246 14.6919 15.9227 14.6919Z" fill="#D94F36"/>
<path d="M25.5446 11.7592C26.0731 11.7592 26.488 11.3456 26.488 10.819C26.488 10.2925 26.0731 9.87891 25.5446 9.87891C25.0165 9.87891 24.6016 10.2925 24.6016 10.819C24.6016 11.3456 25.0165 11.7592 25.5446 11.7592Z" fill="#D94F36"/>
<path d="M25.5446 26.8013C25.0165 26.8013 24.6016 27.2151 24.6016 27.7414C24.6016 28.268 25.0165 28.6816 25.5446 28.6816C26.0731 28.6816 26.488 28.268 26.488 27.7414C26.5259 27.2525 26.0731 26.8013 25.5446 26.8013Z" fill="#D94F36"/>
<path d="M46.4859 13.3009C47.0896 12.1726 47.1273 10.8566 46.6745 9.65328C46.2596 8.56272 45.3539 7.69765 44.2973 7.209C43.5049 6.83284 42.7128 6.49434 41.8825 6.15611C41.7315 6.08077 41.6185 5.96803 41.5806 5.81761C41.4299 5.14062 40.8638 4.65171 40.147 4.65171C40.1091 4.65171 40.0338 4.65171 39.9961 4.65171C39.7319 4.01265 39.0904 3.59882 38.3734 3.59882C37.8452 3.59882 37.3547 3.82457 37.0528 4.20047C36.9398 4.35088 36.7133 4.38856 36.5246 4.35089C36.4114 4.31348 36.2604 4.27582 36.1474 4.23815C35.9965 4.20048 35.8832 4.1254 35.8076 3.97499C35.5813 3.48608 35.0908 3.14758 34.5247 3.14758C34.1851 3.14758 33.8456 3.26059 33.6193 3.48607C33.506 3.56141 33.3551 3.59882 33.2418 3.56141C30.563 3.0725 27.8086 2.80908 25.0163 2.80908C18.187 2.80908 11.6216 4.31348 5.50884 7.2464C4.33915 7.81065 3.50904 8.82588 3.16945 10.0669C2.86759 11.1574 3.05626 12.3607 3.58451 13.3759L5.20698 16.4972C5.3579 16.8357 5.28245 17.2116 5.01832 17.4374C4.26368 18.1141 3.8109 19.0542 3.8109 20.1071C3.8109 21.7617 4.94285 23.1531 6.45215 23.5666C6.90493 24.6572 7.84823 25.5223 9.05579 25.7854C9.20646 25.8231 9.43301 25.8231 9.6593 25.8605C9.88584 25.8605 10.1121 26.0109 10.2254 26.2367L17.6209 40.5639C17.7718 40.827 17.6585 41.1279 17.4322 41.3159C16.8285 41.6921 16.4512 42.3688 16.6022 43.1209C16.7152 43.7979 17.2813 44.3995 17.9604 44.55C18.3756 44.625 18.7528 44.5876 19.0924 44.4372C19.3566 44.3242 19.6585 44.4372 19.8094 44.7004L21.8091 48.5737C22.3752 49.7017 23.4692 50.5291 24.7144 50.6418C26.2239 50.7922 27.6577 50.0025 28.3368 48.6865L31.3931 42.7824C31.5064 42.5946 31.695 42.5192 31.8836 42.5569C32.1478 42.632 32.4118 42.632 32.676 42.5946C32.7136 42.5946 32.7513 42.5569 32.7892 42.5569C33.9589 42.3688 34.8645 41.3536 34.8645 40.1503C34.8645 39.9622 34.8266 39.7741 34.7889 39.5861C36.1474 39.5861 37.2414 38.4958 37.2414 37.1418C37.2414 36.2019 36.6756 35.3745 35.8832 34.9609C35.6569 34.8479 35.5436 34.5848 35.6569 34.3593L43.2033 19.6936C43.3163 19.4678 43.5805 19.28 43.8448 19.3551C44.1464 19.3927 44.4483 19.3927 44.7502 19.2423C45.2407 19.0543 45.6558 18.6407 45.8068 18.1141C45.9954 17.4374 45.8068 16.798 45.4295 16.3845C45.2407 16.1587 45.1653 15.8579 45.3163 15.6321L46.4859 13.3009ZM44.2597 12.1726L42.5995 15.4067C39.4677 13.7521 36.1851 12.5111 32.7136 11.7591C35.3171 12.7366 37.3547 14.0529 38.8641 15.2186C38.7509 15.369 38.6753 15.5571 38.6753 15.7451C38.6753 16.2715 39.0904 16.6853 39.6186 16.6853C39.8828 16.6853 40.1091 16.5723 40.26 16.4219C40.7885 16.9108 41.1657 17.3244 41.4299 17.6252L34.0342 32.1028C32.7513 30.8995 30.9403 30.2978 28.9406 30.6363C26.5257 31.0499 24.6014 33.0055 24.2239 35.4122C24.073 36.3523 24.1486 37.2548 24.4125 38.0819C23.8467 38.3077 23.4315 38.8717 23.4315 39.511C23.4315 40.3758 24.1106 41.0528 24.9786 41.0528C25.3935 41.0528 25.7334 40.9024 26.035 40.6392C26.8274 41.3536 27.7707 41.8799 28.865 42.1057L26.035 47.6336C25.6201 48.4607 24.4125 48.4607 23.9976 47.6336L16.2624 32.7047C17.2057 32.5543 18.1114 32.1405 18.8661 31.6141C19.168 31.9524 19.5829 32.1405 20.0357 32.1405C20.9034 32.1405 21.5828 31.4637 21.5828 30.5987C21.5828 29.997 21.2432 29.4707 20.7148 29.2449C21.0544 28.4178 21.2432 27.4777 21.1676 26.4998C20.9414 23.5292 18.3756 21.1224 15.3946 21.085C14.6022 21.085 13.8855 21.2354 13.1684 21.4985C12.4137 21.7994 11.6969 22.2506 11.1308 22.8146L8.11245 16.9108C8.15012 16.8731 8.22546 16.8357 8.30107 16.798C9.96118 15.7075 14.489 12.887 19.3189 11.4206C16.6775 11.8341 14.0741 12.5488 11.6216 13.4887C11.4327 13.0374 10.9801 12.6992 10.4517 12.6992C9.7349 12.6992 9.16879 13.2632 9.16879 13.9776C9.16879 14.1657 9.20646 14.3538 9.28207 14.5042C8.60295 14.805 7.96151 15.1435 7.31998 15.4817L5.65976 12.1726C5.16926 11.1951 5.54657 10.0292 6.52759 9.54028C12.1121 6.87051 18.3756 5.36638 24.9786 5.36638C31.5817 5.36638 37.8452 6.87051 43.4296 9.54028C44.3729 10.0292 44.7881 11.1951 44.2597 12.1726Z" fill="#D94F36"/>
</svg>
