<svg width="15" height="26" viewBox="0 0 15 26" fill="none" xmlns="http://www.w3.org/2000/svg">
<path d="M13.3333 0H1.66667C1.22464 0 0.800716 0.195663 0.488156 0.543944C0.175595 0.892226 0 1.3646 0 1.85714V24.1429C0 24.6354 0.175595 25.1078 0.488156 25.4561C0.800716 25.8043 1.22464 26 1.66667 26H13.3333C13.7754 26 14.1993 25.8043 14.5118 25.4561C14.8244 25.1078 15 24.6354 15 24.1429V1.85714C15 1.3646 14.8244 0.892226 14.5118 0.543944C14.1993 0.195663 13.7754 0 13.3333 0ZM8.33333 24.1429H6.66667V22.2857H8.33333V24.1429ZM1.66667 20.4286V1.85714H13.3333V20.4286H1.66667Z" fill="#A7A7A7"/>
</svg>
