<svg width="33" height="18" viewBox="0 0 33 18" fill="none" xmlns="http://www.w3.org/2000/svg">
<path fill-rule="evenodd" clip-rule="evenodd" d="M28.4012 11.4452C29.4959 12.4753 30.6512 13.4445 31.633 14.5785C32.0667 15.0824 32.4773 15.6024 32.7914 16.1873C33.2365 17.0186 32.8334 17.9334 32.06 17.9831L27.2525 17.981C26.0125 18.0802 25.0234 17.599 24.1916 16.7819C23.526 16.1284 22.9096 15.4329 22.2696 14.7574C22.0072 14.4813 21.7326 14.2215 21.4045 14.0162C20.7482 13.6056 20.1785 13.7313 19.8035 14.391C19.4215 15.062 19.3349 15.8051 19.2974 16.5529C19.2459 17.6441 18.9037 17.9309 17.7665 17.9809C15.3363 18.0913 13.0299 17.737 10.8873 16.5553C8.99836 15.5136 7.53355 14.043 6.25859 12.3781C3.77621 9.13628 1.87521 5.574 0.166661 1.91193C-0.21792 1.08686 0.0633329 0.643962 1.00782 0.628286C2.57617 0.59892 4.14431 0.601011 5.71451 0.626197C6.35194 0.635184 6.77393 0.987576 7.02005 1.568C7.86858 3.579 8.90685 5.49228 10.2101 7.26574C10.5572 7.73789 10.9111 8.21005 11.415 8.54237C11.9725 8.91034 12.397 8.78838 12.6593 8.18977C12.8257 7.81021 12.8986 7.40138 12.9361 6.99486C13.0604 5.59626 13.0767 4.20007 12.8588 2.80639C12.725 1.93659 12.2167 1.37351 11.3163 1.20892C10.8568 1.125 10.9252 0.960196 11.1477 0.707397C11.5341 0.271401 11.8975 0 12.622 0H18.0553C18.9106 0.162715 19.1006 0.533082 19.2177 1.36265L19.2223 7.17973C19.213 7.50087 19.3888 8.45386 19.9889 8.66642C20.4692 8.81775 20.7858 8.44738 21.074 8.15382C22.3749 6.82305 23.3033 5.25035 24.1328 3.62184C24.5009 2.90577 24.8173 2.16211 25.1241 1.41908C25.3513 0.867708 25.7079 0.596412 26.3523 0.60843L31.5815 0.612924C31.7366 0.612924 31.8934 0.615119 32.0436 0.639886C32.9248 0.784626 33.1662 1.14998 32.8941 1.97933C32.4653 3.28053 31.6309 4.36488 30.8152 5.45424C29.9431 6.61728 29.0104 7.7405 28.1456 8.91044C27.3511 9.9788 27.4142 10.5173 28.4012 11.4452Z" fill="white"/>
</svg>
